# xmcd CD database file
#
# Track frame offsets:
#	150
#	23722
#	44216
#	64473
#	84565
#	113912
#	136151
#	162710
#
# Disc length: 2462 seconds
#
# Revision: 0
# Processed by: cddbd v1.5.2PL0 Copyright (c) Steve Scherf et al.
# Submitted via: CDex 1.51
#
DISCID=73099c08
DTITLE=David Arkenstone - Oddysea - A Musical Voyage
DYEAR=2003
DGENRE=New Age
TTITLE0=Down To The Sea
TTITLE1=Sunsplash
TTITLE2=Ocean Dreams
TTITLE3=Under The Reef
TTITLE4=Voices Of The Deep
TTITLE5=Calypso Beach
TTITLE6=Underwater World
TTITLE7=Dolphin Dance
EXTD=YEAR: 2003
EXTT0=
EXTT1=
EXTT2=
EXTT3=
EXTT4=
EXTT5=
EXTT6=
EXTT7=
PLAYORDER=
